<svg width="1442" height="371" viewBox="0 0 1442 371" fill="none" xmlns="http://www.w3.org/2000/svg">
<path fill-rule="evenodd" clip-rule="evenodd" d="M1331.36 359L1341.07 329.149H1388.34L1398.03 359H1427.69L1382.56 228.091H1346.9L1301.7 359H1331.36ZM1348.1 307.544H1381.33L1365.24 258.006H1364.22L1348.1 307.544ZM1361.87 297.544H1367.57L1364.72 288.786L1361.87 297.544ZM1381.07 339.149L1390.77 369H1441.72L1389.69 218.091H1339.77L1287.67 369H1338.63L1348.34 339.149H1381.07Z" fill="white"/>
<path fill-rule="evenodd" clip-rule="evenodd" d="M1194.33 359H1278.13V336.18H1222.01V228.091H1194.33V359ZM1232.01 326.18V218.091H1184.33V369H1288.13V326.18H1232.01Z" fill="white"/>
<path fill-rule="evenodd" clip-rule="evenodd" d="M1061.23 359H1088.91V321.798L1102.52 305.179L1138.38 359H1171.49L1122.34 286.706L1170.92 228.091H1137.74L1090.63 285.811H1088.91V228.091H1061.23V359ZM1098.91 259.858V218.091H1051.23V369H1098.91V325.371L1101.69 321.97L1133.03 369H1190.38L1134.83 287.299L1192.19 218.091H1133L1098.91 259.858Z" fill="white"/>
<path fill-rule="evenodd" clip-rule="evenodd" d="M1001.78 228.091V310.74C1001.78 315.726 1000.67 320.158 998.456 324.035C996.283 327.913 993.194 330.96 989.188 333.176C985.225 335.392 980.559 336.5 975.189 336.5C969.863 336.5 965.196 335.392 961.191 333.176C957.185 330.96 954.074 327.913 951.858 324.035C949.685 320.158 948.598 315.726 948.598 310.74V228.091H920.921V313.105C920.921 322.65 923.179 331.003 927.696 338.162C932.214 345.321 938.542 350.903 946.681 354.909C954.82 358.872 964.323 360.854 975.189 360.854C986.013 360.854 995.495 358.872 1003.63 354.909C1011.77 350.903 1018.1 345.321 1022.62 338.162C1027.18 331.003 1029.46 322.65 1029.46 313.105V228.091H1001.78ZM991.78 218.091H1039.46V313.105C1039.46 324.304 1036.76 334.566 1031.06 343.521C1025.49 352.344 1017.71 359.125 1008.05 363.881L1008.03 363.891L1008.01 363.9C998.267 368.645 987.237 370.854 975.189 370.854C963.106 370.854 952.052 368.647 942.303 363.9L942.284 363.891L942.265 363.881C932.592 359.121 924.813 352.332 919.239 343.498C913.59 334.544 910.921 324.291 910.921 313.105V218.091H958.598V310.74C958.598 314.206 959.335 316.906 960.561 319.109C961.842 321.337 963.6 323.081 966.031 324.426C968.329 325.697 971.277 326.5 975.189 326.5C979.163 326.5 982.087 325.689 984.308 324.448L984.327 324.437L984.347 324.426C986.776 323.082 988.498 321.351 989.733 319.146L989.753 319.11L989.774 319.074C991.029 316.877 991.78 314.192 991.78 310.74V218.091Z" fill="white"/>
<path fill-rule="evenodd" clip-rule="evenodd" d="M793.796 359H821.473V312.594H841.677L866.473 359H897.027L869.252 308.143C869.652 307.969 870.046 307.791 870.437 307.608C873.176 306.328 875.666 304.834 877.906 303.125C881.486 300.395 884.43 297.116 886.736 293.29C890.486 287.025 892.361 279.547 892.361 270.854C892.361 262.203 890.508 254.682 886.8 248.29C883.135 241.855 877.787 236.891 870.756 233.396C863.767 229.859 855.33 228.091 845.444 228.091H793.796V359ZM840.266 290.349C843.71 290.349 846.774 290.042 849.458 289.426C850.892 289.097 852.217 288.681 853.434 288.176C856.928 286.727 859.527 284.554 861.232 281.656C862.979 278.758 863.853 275.158 863.853 270.854C863.853 266.507 862.979 262.842 861.232 259.859C859.527 256.876 856.907 254.618 853.37 253.084C849.875 251.507 845.465 250.719 840.138 250.719H821.473V290.349H840.266ZM831.473 280.349V260.719H840.138C844.564 260.719 847.455 261.386 849.257 262.199L849.323 262.229L849.391 262.258C851.2 263.043 852.046 263.94 852.549 264.821L852.576 264.867L852.603 264.913C853.249 266.016 853.853 267.832 853.853 270.854C853.853 273.826 853.252 275.524 852.668 276.493L852.64 276.539L852.613 276.586C852.146 277.379 851.355 278.212 849.604 278.939C847.703 279.727 844.721 280.349 840.266 280.349H831.473ZM875.236 224.456C866.537 220.062 856.483 218.091 845.444 218.091H783.796V369H831.473V322.594H835.682L860.479 369H913.883L882.743 311.982C887.816 308.365 892.042 303.858 895.301 298.452L895.316 298.426C900.159 290.337 902.361 281.009 902.361 270.854C902.361 260.758 900.188 251.456 895.469 243.304C890.766 235.063 883.907 228.772 875.236 224.456Z" fill="white"/>
<path fill-rule="evenodd" clip-rule="evenodd" d="M700.245 359C713.541 359 724.961 356.379 734.506 351.138C744.095 345.896 751.445 338.375 756.559 328.574C761.715 318.773 764.293 307.054 764.293 293.418C764.293 279.824 761.715 268.148 756.559 258.389C751.445 248.631 744.137 241.152 734.634 235.953C725.131 230.712 713.796 228.091 700.629 228.091H653.839V359H700.245ZM739.448 227.188C728.185 220.98 715.12 218.091 700.629 218.091H643.839V369H700.245C714.855 369 728.007 366.115 739.32 359.903C750.652 353.704 759.399 344.739 765.414 333.22C771.477 321.69 774.293 308.302 774.293 293.418C774.293 278.576 771.477 265.227 765.411 253.737C759.401 242.273 750.702 233.348 739.448 227.188ZM699.095 335.285H681.516V251.805H699.158C707.34 251.805 714.222 253.254 719.805 256.152C725.387 259.05 729.585 263.567 732.397 269.703C735.252 275.839 736.68 283.744 736.68 293.418C736.68 303.176 735.252 311.145 732.397 317.324C729.585 323.46 725.366 327.998 719.741 330.939C714.158 333.837 707.276 335.285 699.095 335.285ZM715.118 322.071C711.324 324.037 706.13 325.285 699.095 325.285H691.516V261.805H699.158C706.203 261.805 711.402 263.057 715.198 265.027C718.653 266.821 721.35 269.6 723.306 273.87L723.318 273.896L723.33 273.922C725.366 278.296 726.68 284.621 726.68 293.418C726.68 302.31 725.363 308.707 723.319 313.129L723.313 313.143L723.306 313.157C721.357 317.41 718.643 320.226 715.118 322.071Z" fill="white"/>
<path fill-rule="evenodd" clip-rule="evenodd" d="M622.067 228.091H594.39V359H622.067V228.091ZM632.067 218.091V369H584.39V218.091H632.067Z" fill="white"/>
<path fill-rule="evenodd" clip-rule="evenodd" d="M413.265 342.572V359H513.492V336.18H447.973L513.364 244.518V228.091H413.137V250.91H478.591L413.265 342.572ZM459.185 260.91L403.265 339.374V369H523.492V326.18H467.391L523.364 247.72V218.091H403.137V260.91H459.185Z" fill="white"/>
<path fill-rule="evenodd" clip-rule="evenodd" d="M267.571 228.091L315.319 312.721V359H342.805V312.721L390.554 228.091H359.552L329.701 284.469H328.423L298.572 228.091H267.571ZM329.062 264.305L304.592 218.091H250.447L305.319 315.348V369H352.805V315.348L407.677 218.091H353.532L329.062 264.305Z" fill="white"/>
<path fill-rule="evenodd" clip-rule="evenodd" d="M167.516 359L177.227 329.149H224.493L234.185 359H263.844L218.716 228.091H183.049L137.857 359H167.516ZM184.255 307.544H217.478L201.394 258.006H200.371L184.255 307.544ZM198.025 297.544H203.717L200.874 288.786L198.025 297.544ZM217.226 339.149L226.918 369H277.869L225.847 218.091H175.922L123.826 369H174.779L184.49 339.149H217.226Z" fill="white"/>
<path fill-rule="evenodd" clip-rule="evenodd" d="M58.7842 359C72.0796 359 83.5001 356.379 93.0455 351.138C102.634 345.896 109.984 338.375 115.098 328.574C120.254 318.773 122.832 307.054 122.832 293.418C122.832 279.824 120.254 268.148 115.098 258.389C109.984 248.631 102.676 241.152 93.1734 235.953C83.6705 230.712 72.3353 228.091 59.1677 228.091H12.3779V359H58.7842ZM97.9857 227.187C86.7231 220.979 73.6589 218.091 59.1677 218.091H2.37793V369H58.7842C73.3938 369 86.5459 366.115 97.8587 359.903C109.193 353.703 117.941 344.736 123.956 333.214C130.017 321.686 132.832 308.3 132.832 293.418C132.832 278.575 130.016 265.225 123.949 253.735C117.939 242.271 109.24 233.347 97.9857 227.187ZM57.6336 335.285H40.0555V251.805H57.6975C65.8794 251.805 72.7615 253.254 78.3438 256.152C83.9262 259.05 88.1237 263.567 90.9362 269.703C93.7913 275.839 95.2188 283.744 95.2188 293.418C95.2188 303.176 93.7913 311.145 90.9362 317.324C88.1237 323.46 83.9049 327.998 78.2799 330.939C72.6975 333.837 65.8154 335.285 57.6336 335.285ZM50.0555 261.805H57.6975C64.7421 261.805 69.9408 263.057 73.7367 265.027C77.1925 266.821 79.8887 269.6 81.8455 273.87L81.8575 273.896L81.8695 273.922C83.9047 278.296 85.2188 284.621 85.2188 293.418C85.2188 302.31 83.9017 308.707 81.8584 313.129L81.852 313.143L81.8455 313.157C79.8969 317.409 77.1843 320.224 73.6612 322.069C69.8663 324.036 64.671 325.285 57.6336 325.285H50.0555V261.805Z" fill="white"/>
<path fill-rule="evenodd" clip-rule="evenodd" d="M1434.72 0.0908203V151H1387.04V0.0908203H1434.72ZM1424.72 10.0908H1397.04V141H1424.72V10.0908Z" fill="white"/>
<path fill-rule="evenodd" clip-rule="evenodd" d="M1247.08 151V0.0908203H1303.87C1318.37 0.0908203 1331.44 2.98161 1342.71 9.19419C1353.95 15.351 1362.64 24.2665 1368.65 35.7173C1374.72 47.2119 1377.54 60.5672 1377.54 75.4175C1377.54 90.2953 1374.73 103.678 1368.67 115.204C1362.65 126.732 1353.9 135.703 1342.56 141.905C1331.25 148.116 1318.1 151 1303.49 151H1247.08ZM1359.81 110.574C1364.96 100.773 1367.54 89.0539 1367.54 75.4175C1367.54 61.8238 1364.96 50.1476 1359.81 40.3891C1354.69 30.6306 1347.38 23.1519 1337.88 17.953C1328.38 12.7116 1317.04 10.0908 1303.87 10.0908H1257.08V141H1303.49C1316.79 141 1328.21 138.379 1337.75 133.138C1347.34 127.896 1354.69 120.375 1359.81 110.574ZM1326.56 95.1432L1326.57 95.1292C1328.61 90.7071 1329.93 84.3096 1329.93 75.4175C1329.93 66.621 1328.61 60.2956 1326.58 55.9216L1326.56 55.8956L1326.55 55.8696C1324.6 51.6001 1321.9 48.8213 1318.44 47.0274C1314.65 45.057 1309.45 43.8053 1302.4 43.8053H1294.76V107.285H1302.34C1309.38 107.285 1314.57 106.037 1318.37 104.07C1321.89 102.225 1324.6 99.4089 1326.55 95.1572L1326.56 95.1432ZM1322.99 112.939C1317.4 115.837 1310.52 117.285 1302.34 117.285H1284.76V33.8053H1302.4C1310.59 33.8053 1317.47 35.2542 1323.05 38.1519C1328.63 41.0496 1332.83 45.5667 1335.64 51.703C1338.5 57.8394 1339.93 65.7442 1339.93 75.4175C1339.93 85.1761 1338.5 93.1448 1335.64 99.3238C1332.83 105.46 1328.61 109.998 1322.99 112.939Z" fill="white"/>
<path fill-rule="evenodd" clip-rule="evenodd" d="M1119.96 151V0.0908203H1181.61C1192.65 0.0908203 1202.7 2.06223 1211.4 6.45716C1220.08 10.7756 1226.94 17.0717 1231.64 25.3191C1236.36 33.467 1238.53 42.7636 1238.53 52.8536C1238.53 63.0085 1236.32 72.3366 1231.48 80.4261L1231.46 80.4519C1228.21 85.8579 1223.98 90.3648 1218.91 93.9816L1250.05 151H1196.64L1171.85 104.594H1167.64V151H1119.96ZM1157.64 94.5937H1177.84L1202.64 141H1233.19L1205.42 90.1427C1205.82 89.9695 1206.21 89.7912 1206.6 89.6079C1209.34 88.3284 1211.83 86.8342 1214.07 85.1254C1217.65 82.3949 1220.59 79.1164 1222.9 75.2897C1226.65 69.0255 1228.53 61.5468 1228.53 52.8536C1228.53 44.203 1226.67 36.6817 1222.96 30.2897C1219.3 23.855 1213.95 18.8905 1206.92 15.3962C1199.93 11.8593 1191.49 10.0908 1181.61 10.0908H1129.96V141H1157.64V94.5937ZM1176.43 72.3493C1179.87 72.3493 1182.94 72.0416 1185.62 71.4261C1187.06 71.0972 1188.38 70.6806 1189.6 70.1761C1193.09 68.7272 1195.69 66.5539 1197.4 63.6562C1199.14 60.7584 1200.02 57.1576 1200.02 52.8536C1200.02 48.507 1199.14 44.8422 1197.4 41.8593C1195.69 38.8763 1193.07 36.6178 1189.53 35.0837C1186.04 33.507 1181.63 32.7187 1176.3 32.7187H1157.64V72.3493H1176.43ZM1167.64 62.3493V42.7187H1176.3C1180.73 42.7187 1183.62 43.386 1185.42 44.1988L1185.49 44.2288L1185.55 44.2579C1187.36 45.0427 1188.21 45.94 1188.71 46.8207L1188.74 46.8671L1188.77 46.9133C1189.41 48.0158 1190.02 49.8321 1190.02 52.8536C1190.02 55.8259 1189.42 57.5242 1188.83 58.4927L1188.8 58.5392L1188.78 58.586C1188.31 59.3794 1187.52 60.2125 1185.77 60.9386C1183.87 61.7267 1180.88 62.3493 1176.43 62.3493H1167.64Z" fill="white"/>
<path fill-rule="evenodd" clip-rule="evenodd" d="M1060.51 0.0908203H1108.19V95.105C1108.19 106.304 1105.49 116.566 1099.79 125.521C1094.22 134.344 1086.44 141.125 1076.78 145.881L1076.76 145.891L1076.74 145.9C1067 150.645 1055.97 152.854 1043.92 152.854C1031.84 152.854 1020.78 150.647 1011.03 145.9L1011.01 145.891L1011 145.881C1001.32 141.121 993.543 134.332 987.97 125.498C982.32 116.544 979.651 106.291 979.651 95.105V0.0908203H1027.33V92.74C1027.33 96.2072 1028.07 98.908 1029.29 101.111C1030.57 103.339 1032.33 105.081 1034.76 106.426C1037.06 107.697 1040.01 108.5 1043.92 108.5C1047.89 108.5 1050.82 107.689 1053.04 106.448L1053.06 106.437L1053.08 106.426C1055.51 105.082 1057.23 103.351 1058.46 101.146L1058.48 101.11L1058.5 101.074C1059.76 98.8772 1060.51 96.1924 1060.51 92.74V0.0908203ZM1020.59 106.035C1018.42 102.158 1017.33 97.7258 1017.33 92.74V10.0908H989.651V95.105C989.651 104.65 991.91 113.003 996.427 120.162C1000.94 127.321 1007.27 132.903 1015.41 136.909C1023.55 140.872 1033.05 142.854 1043.92 142.854C1054.74 142.854 1064.23 140.872 1072.36 136.909C1080.5 132.903 1086.83 127.321 1091.35 120.162C1095.91 113.003 1098.19 104.65 1098.19 95.105V10.0908H1070.51V92.74C1070.51 97.7258 1069.4 102.158 1067.19 106.035C1065.01 109.913 1061.92 112.96 1057.92 115.176C1053.96 117.392 1049.29 118.5 1043.92 118.5C1038.59 118.5 1033.93 117.392 1029.92 115.176C1025.92 112.96 1022.8 109.913 1020.59 106.035Z" fill="white"/>
<path fill-rule="evenodd" clip-rule="evenodd" d="M846.55 151V0.0908203H894.227V41.858L928.316 0.0908203H987.513L930.154 69.2994L985.704 151H928.348L897.014 103.97L894.227 107.371V151H846.55ZM884.227 103.798L897.842 87.1789L933.702 141H966.813L917.658 68.7059L966.237 10.0908H933.063L885.953 67.811H884.227V10.0908H856.55V141H884.227V103.798Z" fill="white"/>
<path fill-rule="evenodd" clip-rule="evenodd" d="M735.421 151V0.0908203H783.098V108.18H839.221V151H735.421ZM773.098 118.18V10.0908H745.421V141H829.221V118.18H773.098Z" fill="white"/>
<path fill-rule="evenodd" clip-rule="evenodd" d="M631.599 151H580.646L632.742 0.0908203H682.667L734.689 151H683.738L674.046 121.149H641.31L631.599 151ZM624.336 141H594.677L639.869 10.0908H675.537L720.664 141H691.005L681.313 111.149H634.047L624.336 141ZM641.076 89.5439L657.191 40.0056H658.214L674.298 89.5439H641.076ZM654.845 79.5439H660.538L657.694 70.7856L654.845 79.5439Z" fill="white"/>
<path fill-rule="evenodd" clip-rule="evenodd" d="M401.155 151V0.0908203H457.945C472.436 0.0908203 485.5 2.97933 496.763 9.18686C508.017 15.3468 516.716 24.2706 522.726 35.7337C528.793 47.2245 531.61 60.5742 531.61 75.4175C531.61 90.3023 528.794 103.69 522.73 115.22C516.715 126.74 507.967 135.706 496.633 141.905C485.321 148.116 472.17 151 457.562 151H401.155ZM513.875 110.574C519.032 100.773 521.61 89.0539 521.61 75.4175C521.61 61.8238 519.032 50.1476 513.875 40.3891C508.762 30.6306 501.454 23.1519 491.951 17.953C482.448 12.7116 471.113 10.0908 457.945 10.0908H411.155V141H457.562C470.857 141 482.277 138.379 491.823 133.138C501.411 127.896 508.762 120.375 513.875 110.574ZM480.636 95.1292C482.679 90.7071 483.996 84.3096 483.996 75.4175C483.996 66.621 482.682 60.2956 480.647 55.9216L480.635 55.8956L480.623 55.8696C478.666 51.6001 475.97 48.8213 472.514 47.0274C468.718 45.057 463.519 43.8053 456.475 43.8053H448.833V107.285H456.411C463.446 107.285 468.64 106.037 472.435 104.071C475.96 102.226 478.674 99.4101 480.623 95.1572L480.636 95.1292ZM477.057 112.939C471.475 115.837 464.593 117.285 456.411 117.285H438.833V33.8053H456.475C464.657 33.8053 471.539 35.2542 477.121 38.1519C482.704 41.0496 486.901 45.5667 489.714 51.703C492.569 57.8394 493.996 65.7442 493.996 75.4175C493.996 85.1761 492.569 93.1448 489.714 99.3238C486.901 105.46 482.682 109.998 477.057 112.939Z" fill="white"/>
<path fill-rule="evenodd" clip-rule="evenodd" d="M297.333 151H246.38L298.476 0.0908203H348.401L400.424 151H349.473L339.781 121.149H307.044L297.333 151ZM290.071 141H260.412L305.603 10.0908H341.271L386.399 141H356.74L347.048 111.149H299.782L290.071 141ZM306.81 89.5439L322.926 40.0056H323.949L340.033 89.5439H306.81ZM320.579 79.5439H326.272L323.428 70.7856L320.579 79.5439Z" fill="white"/>
<path fill-rule="evenodd" clip-rule="evenodd" d="M116.642 0.0908203H170.788L195.257 46.3054L219.727 0.0908203H273.873L219 97.3479V151H171.514V97.3479L116.642 0.0908203ZM181.514 94.7215V141H209V94.7215L256.749 10.0908H225.747L195.897 66.4687H194.618L164.767 10.0908H133.766L181.514 94.7215Z" fill="white"/>
<path fill-rule="evenodd" clip-rule="evenodd" d="M0.971591 151V121.374L56.8916 42.9104H0.84375V0.0908203H121.071V29.7197L65.0981 108.18H121.199V151H0.971591ZM45.6804 118.18L111.071 26.5184V10.0908H10.8438V32.9104H76.2983L10.9716 124.572V141H111.199V118.18H45.6804Z" fill="white"/>
</svg>
